<?xml version="1.0" encoding="UTF-8" standalone="no"?>
<svg
   xmlns:dc="http://purl.org/dc/elements/1.1/"
   xmlns:cc="http://creativecommons.org/ns#"
   xmlns:rdf="http://www.w3.org/1999/02/22-rdf-syntax-ns#"
   xmlns:svg="http://www.w3.org/2000/svg"
   xmlns="http://www.w3.org/2000/svg"
   xmlns:sodipodi="http://sodipodi.sourceforge.net/DTD/sodipodi-0.dtd"
   xmlns:inkscape="http://www.inkscape.org/namespaces/inkscape"
   width="196.82"
   height="31.353"
   viewBox="0 0 196.82 31.353"
   version="1.1"
   id="svg29"
   sodipodi:docname="logo.svg"
   inkscape:version="0.92.4 (5da689c313, 2019-01-14)">
  <metadata
     id="metadata33">
    <rdf:RDF>
      <cc:Work
         rdf:about="">
        <dc:format>image/svg+xml</dc:format>
        <dc:type
           rdf:resource="http://purl.org/dc/dcmitype/StillImage" />
      </cc:Work>
    </rdf:RDF>
  </metadata>
  <sodipodi:namedview
     pagecolor="#ffffff"
     bordercolor="#666666"
     borderopacity="1"
     objecttolerance="10"
     gridtolerance="10"
     guidetolerance="10"
     inkscape:pageopacity="0"
     inkscape:pageshadow="2"
     inkscape:window-width="1366"
     inkscape:window-height="715"
     id="namedview31"
     showgrid="false"
     inkscape:snap-text-baseline="false"
     inkscape:zoom="4.1776749"
     inkscape:cx="98.410004"
     inkscape:cy="28.51035"
     inkscape:window-x="-8"
     inkscape:window-y="-8"
     inkscape:window-maximized="1"
     inkscape:current-layer="Group_1709" />
  <defs
     id="defs12">
    <linearGradient
       id="linear-gradient"
       y1="2213.067"
       x2="2221.2594"
       y2="2213.2082"
       gradientUnits="userSpaceOnUse"
       gradientTransform="matrix(0.91770835,0,0,1.0896708,-2133.2128,-5454.8255)"
       x1="2209.4858">
      <stop
         offset="0"
         stop-color="#ff3158"
         id="stop2" />
      <stop
         offset="1"
         stop-color="#ff1249"
         id="stop4" />
    </linearGradient>
    <linearGradient
       id="linear-gradient-2"
       y1="2847.989"
       x2="1728.0228"
       y2="2848.1964"
       gradientUnits="userSpaceOnUse"
       gradientTransform="matrix(1.1815539,0,0,0.84634313,-2132.7468,-5454.0255)"
       x1="1712.072">
      <stop
         offset="0"
         stop-color="#ff4e70"
         id="stop7" />
      <stop
         offset="1"
         stop-color="#ff3158"
         id="stop9" />
    </linearGradient>
  </defs>
  <g
     id="Group_1709"
     data-name="Group 1709"
     transform="translate(278.14 3063.742)">
    <path
       id="add"
       d="m -96.432453,-3059.3633 -1.05,-0.582 a 0.07103017,0.07103017 0 0 1 -0.02769,-0.097 l 0.58103,-1.0483 a 0.35314999,0.35314999 0 1 0 -0.616875,-0.3419 l -0.582,1.05 a 0.07103017,0.07103017 0 0 1 -0.09656,0.028 l -1.05,-0.582 a 0.35314999,0.35314999 0 0 0 -0.341925,0.6168 l 1.05,0.582 a 0.07103017,0.07103017 0 0 1 0.02769,0.097 l -0.582,1.05 a 0.35314999,0.35314999 0 1 0 0.616875,0.3419 l 0.582,-1.05 a 0.07103017,0.07103017 0 0 1 0.09753,-0.029 l 1.05,0.582 a 0.35314999,0.35314999 0 0 0 0.341925,-0.6169 z m 0,0"
       inkscape:connector-curvature="0"
       style="fill:#222222;stroke-width:1.00042486" />
    <path
       id="minus"
       d="m -100.34105,-3062.3949 -2.26009,0.5406 a 0.39105244,0.19199087 0 0 0 0.34252,0.3452 l 2.260085,-0.5406 a 0.39105092,0.19199011 0 0 0 -0.342515,-0.3452 z"
       inkscape:connector-curvature="0"
       style="fill:#222222;stroke-width:0.70070076" />
    <g
       id="Ellipse_359"
       data-name="Ellipse 359"
       transform="translate(-105.90478,-3060.6925)"
       style="fill:none;stroke:#222222;stroke-width:0.80000001">
      <circle
         cx="1.408"
         cy="1.408"
         r="1.408"
         id="circle16"
         style="stroke:none" />
      <circle
         cx="1.408"
         cy="1.408"
         r="1.008"
         id="circle18"
         style="fill:none" />
    </g>
    <path
       id="Path_28989"
       data-name="Path 28989"
       d="m -105.24678,-3046.9675 a 5.4,5.4 0 0 1 5.562997,0.62 c 3.925,1.087 4.705,0.56 4.705,0.56 0,0 1.923,10.548 -5.247997,11.13 -7.171,0.582 -5.02,-12.31 -5.02,-12.31 z"
       style="fill:url(#linear-gradient)"
       inkscape:connector-curvature="0" />
    <path
       id="Path_28990"
       data-name="Path 28990"
       d="m -95.246783,-3046.2145 a 3.954,3.954 0 0 0 -5.535997,-0.409 4.021,4.021 0 0 1 -4.7,0.409 c 0,0 -4.756,7.383 -4.332,10.574 0.9,2.325 6.238,0.685 9.273,0.927 3.304997,0.264 8.275997,1.75 9.546997,-0.927 -0.252,-3.137 -4.197,-10.507 -4.252,-10.574 z"
       style="fill:url(#linear-gradient-2)"
       inkscape:connector-curvature="0" />
    <path
       id="Path_28991"
       data-name="Path 28991"
       d="m -90.495783,-3036.4095 -6.56,-14.458 a 2,2 0 0 1 -0.135,-0.661 v -1.332 a 0.6,0.6 0 0 1 0.318,-0.475 1.486,1.486 0 0 0 -0.724,-2.787 h -5.499997 a 1.488,1.488 0 0 0 -0.846,2.714 0.691,0.691 0 0 1 0.3,0.505 v 1.539 a 1.838,1.838 0 0 1 -0.145,0.656 l -6.651,14.306 a 1.645,1.645 0 0 0 0.024,1.6 1.646,1.646 0 0 0 1.439,0.7 h 16.959997 a 1.564,1.564 0 0 0 1.52,-2.3 z m -0.948,0.656 c 0,0 0.364,0.554 -0.217,0.581 0,0.053 -13.109997,0.052 -17.586997,0 -0.554,0 -0.29,-0.534 -0.29,-0.534 0,-0.016 3.7,-8.143 3.78,-8.315 l 3,-6.459 a 1.825,1.825 0 0 0 0.124,-0.656 v -2.644 c 0,-0.217 -0.105,-0.393 -0.234,-0.393 h -0.232 a 0.459,0.459 0 0 1 0,-0.917 h 5.499997 a 0.459,0.459 0 0 1 0,0.917 h -0.308 a 0.358,0.358 0 0 0 -0.307,0.393 v 2.464 a 2,2 0 0 0 0.124,0.661 l 2.828,6.63 c 0.078,0.174 3.866,8.288 3.819,8.272 z"
       inkscape:connector-curvature="0"
       style="fill:#030104" />
    <text
       xml:space="preserve"
       style="font-style:normal;font-variant:normal;font-weight:bold;font-stretch:normal;font-size:58.60133362px;line-height:1.25;font-family:Königsberg;-inkscape-font-specification:'Königsberg Bold';letter-spacing:0px;word-spacing:0px;fill:#000000;fill-opacity:1;stroke:none;stroke-width:1.46503329"
       x="-271.43771"
       y="-3033.8059"
       id="text43"><tspan
         sodipodi:role="line"
         id="tspan41"
         x="-271.43771"
         y="-3033.8059"
         style="font-style:normal;font-variant:normal;font-weight:bold;font-stretch:normal;font-size:31.25404549px;font-family:Königsberg;-inkscape-font-specification:'Königsberg Bold';stroke-width:1.46503329">Efunopedi</tspan></text>
    <text
       xml:space="preserve"
       style="font-style:normal;font-weight:normal;font-size:15.76186371px;line-height:1.25;font-family:sans-serif;letter-spacing:0px;word-spacing:0px;fill:#000000;fill-opacity:1;stroke:none;stroke-width:0.3940466"
       x="-104.5985"
       y="-3036.6975"
       id="text47"><tspan
         sodipodi:role="line"
         id="tspan45"
         x="-104.5985"
         y="-3036.6975"
         style="font-style:normal;font-variant:normal;font-weight:normal;font-stretch:normal;font-family:Samba;-inkscape-font-specification:Samba;stroke-width:0.3940466">A</tspan></text>
  </g>
</svg>
